# xmcd
#
# Track frame offsets:
#	182
#	10575
#	27197
#	45162
#	60530
#	74577
#	96187
#	108980
#	121915
#	138685
#	153820
#
# Disc length: 2262
#
# Revision: 5
# Processed by: cddbd v1.5.2PL0 Copyright (c) Steve Scherf et al.
# Submitted via: Broken Cross Disk Manager 3.94.2201
#
DISCID=8508d40b
DTITLE=Old Dogs - Old Dogs
DYEAR=1998
DGENRE=Country
TTITLE0=Old Dogs
TTITLE1=I Don't Do It No More
TTITLE2=She'd Rather Be Homeless
TTITLE3=Cut The Mustard
TTITLE4=Young Man's Job
TTITLE5=Me And Jimmie Rodgers
TTITLE6=Elvis Has Left The Building
TTITLE7=Rough On The Livin'
TTITLE8=Still Gonna Die
TTITLE9=I Never Expected
TTITLE10=Time
EXTD=the Album Title is OLD DOGS not OLD
EXTT0=
EXTT1=
EXTT2=
EXTT3=
EXTT4=
EXTT5=
EXTT6=
EXTT7=
EXTT8=
EXTT9=
EXTT10=
PLAYORDER=
